# xmcd
#
# Track frame offsets: 
#        150
#        30230
#        55587
#        84440
#        111330
#        141917
#        169475
#        198907
#        225925
#        250000
#        280552
#        302482
#
# Disc length: 4411 seconds
#
# Revision: 4
# Processed by: cddbd v1.5.2PL0 Copyright (c) Steve Scherf et al.
# Submitted via: ExactAudioCopy v0.95a5
#
DISCID=8e11390c
DTITLE=Various Artist - Street Tracks 32
DYEAR=1900
DGENRE=Hip-Hop
TTITLE0=Will Smith - Men In Black (Street Tracks 32)
TTITLE1=Notorious B.I.G. - Mo Money Mo Problems (Street Tracks 32)
TTITLE2=Puff Daddy and Faith Evans - I'll Be Missing Your (Street Tracks
TTITLE2=32)
TTITLE3=Adina Howard - (Freak) And U Know It (Street Tracks 32)
TTITLE4=Lil' Kim feat Da Brat et al - Not Tonight (Street Tracks 32)
TTITLE5=Party people - Free Your Mind (Street Tracks 32)
TTITLE6=En Vogue - Whatever (Street Tracks 32)
TTITLE7=The lady of rage - Get With Da Wickedness (Street Tracks 32)
TTITLE8=Missy Elliott - The Rain (Supa Dupa Fly) (Street Tracks 32)
TTITLE9=Snoop Doggy Dogg - Doggfather (Street Tracks 32)
TTITLE10=Wyclef Jean - We Trying To Stay Alive (Street Tracks 32)
TTITLE11=Dana Harris - As We Lay (Street Tracks 32)
EXTD=
EXTT0=Will Smith
EXTT1=The Notorious B.I.G.
EXTT2=Puff Daddy and Faith Evans
EXTT3=Adina Howard
EXTT4=Lil' Kim Feat
EXTT5=Party People
EXTT6=Envogue
EXTT7=The Lady Of Rage
EXTT8=Missy Elliott
EXTT9=Snoop Doggy Dogg
EXTT10=Wyclef Jean Feat
EXTT11=Dana Harris
PLAYORDER=
